<svg xmlns="http://www.w3.org/2000/svg" width="720" height="480" viewBox="0 0 720 480"><defs><linearGradient id="s" x2="0" y2="1"><stop stop-color="#c3d0cb"/><stop offset="1" stop-color="#e6e8d8"/></linearGradient><filter id="g"><feTurbulence baseFrequency=".5" numOctaves="3" stitchTiles="stitch"/><feColorMatrix type="saturate" values="0"/><feComponentTransfer><feFuncA type="linear" slope=".14"/></feComponentTransfer><feBlend in="SourceGraphic" mode="multiply"/></filter></defs><g filter="url(#g)"><path fill="url(#s)" d="M0 0h720v480H0z"/><path d="M0 230 75 152 137 186 237 67 346 195 436 112 539 209 620 136 720 223v200H0z" fill="#b1bfb1"/><path d="m178 139 59-72 65 77-44-15-23-30-28 42" fill="#e4e7d7"/><path d="M0 253 154 158 262 284 348 196 474 278 601 192 720 263v217H0z" fill="#809b88"/><path d="M0 321 113 256 238 329 421 266 555 331 720 277v203H0z" fill="#5e826d"/><path d="M0 415q139-105 329-52t391-15v132H0z" fill="#486d58"/><path d="M370 306q91 19 32 47t-25 48 161 41 48 38h116q44-40-97-63t-176-36 28-35-74-42" fill="#a9c3b1"/><path d="M379 308q82 23 14 53t19 42 169 39" fill="none" stroke="#e0e1c8" stroke-width="3"/><g fill="#385d4c"><path d="m43 351 39-83 38 83h-26l36 47H37l32-47zm482-44 31-74 33 74h-22l31 43h-86l34-43zM622 400l38-93 43 93h-26l34 49h-96l31-49z"/></g><g stroke="#cbd4bf" fill="none" opacity=".6"><path d="m452 150 35 41m-276-36-51 72m208 0 50 40m-275-53 45 69"/></g><g fill="#d8d7ac"><circle cx="178" cy="419" r="3"/><circle cx="223" cy="446" r="2"/><circle cx="196" cy="432" r="3"/><circle cx="319" cy="460" r="3"/></g><path d="m536 89 10-5 8 5m26 12 8-5 8 5" stroke="#819184" fill="none" stroke-width="2"/></g></svg>
