<svg xmlns="http://www.w3.org/2000/svg" width="720" height="480" viewBox="0 0 720 480"><defs><filter id="g"><feTurbulence baseFrequency=".65" numOctaves="3" stitchTiles="stitch"/><feColorMatrix type="saturate" values="0"/><feComponentTransfer><feFuncA type="linear" slope=".13"/></feComponentTransfer><feBlend in="SourceGraphic" mode="multiply"/></filter><linearGradient id="b" x2="0" y2="1"><stop stop-color="#e3d8bd"/><stop offset="1" stop-color="#d2bb95"/></linearGradient></defs><g filter="url(#g)"><path fill="url(#b)" d="M0 0h720v480H0z"/><path fill="#f3e8ca" opacity=".65" d="m275 0 218 0-149 480H117z"/><path d="M0 340h720M0 346h720" stroke="#b6a17e" opacity=".4"/><path d="m135 148 232 36 190-53 32 233-203 65-226-45z" fill="#87866a" opacity=".3"/><path d="m120 138 235 32 187-48 31 228-205 60-222-44z" fill="#8b7259"/><path d="m133 131 221 33 178-49 26 224-195 61-215-43z" fill="#f3ebd4"/><path d="m354 164 9 236 7-228 162-57-168 37z" fill="#ded4b9"/><path d="m161 161 160 26m-157-8 157 27m-154-8 156 24m-152-5 153 23m-150-4 151 24m-147-4 148 24m-145-4 146 22m-142-3 142 21m-138-1 139 21m-137-2 138 21m62-163 112-31m-110 49 113-30m-111 49 113-32m-110 51 112-32m-110 51 114-34m-112 53 114-34m-113 53 116-34m-114 53 112-34" stroke="#b2ab93" stroke-width="2" opacity=".7"/><path d="m374 161 29-8 9 119-16-12-11 19z" fill="#b97851"/><ellipse cx="593" cy="106" rx="65" ry="55" fill="#b9a17d" opacity=".25"/><ellipse cx="582" cy="93" rx="62" ry="48" fill="#e8dcc0"/><path d="M619 64q51-6 42 31t-38 5" fill="none" stroke="#efe6d0" stroke-width="15"/><path d="M539 53h90v42q-8 34-45 33t-45-33z" fill="#f7efdb"/><ellipse cx="584" cy="53" rx="45" ry="17" fill="#e5d5b4"/><ellipse cx="584" cy="54" rx="37" ry="12" fill="#84664a"/><path d="m576 15 3-12m19 15 2-15" stroke="#f6eedb" stroke-width="3"/><path d="m74 73 26 176" stroke="#687650" stroke-width="4"/><g fill="#7c8a61"><ellipse cx="68" cy="93" rx="13" ry="28" transform="rotate(-39 68 93)"/><ellipse cx="91" cy="123" rx="12" ry="26" transform="rotate(30 91 123)"/><ellipse cx="77" cy="157" rx="13" ry="27" transform="rotate(-40 77 157)"/><ellipse cx="106" cy="190" rx="12" ry="27" transform="rotate(36 106 190)"/></g><path d="m603 255 14-4 48 166-14 4z" fill="#687966"/><path d="m651 421 14-4-2 25z" fill="#d7bd92"/><path d="m660 435 3 7-6-5z" fill="#474a3d"/></g></svg>
